<svg width="310" height="80" viewBox="0 0 310 80" fill="none" xmlns="http://www.w3.org/2000/svg">
<path d="M25.8349 10.2666C28.8541 10.2666 30.8019 11.6114 31.224 12.0378C31.224 18.8603 30.1526 24.9939 29.0489 24.9939C27.9451 24.9939 27.4906 24.2395 25.4129 24.2395C24.7636 24.2395 23.9195 24.5675 23.4001 24.9283C22.7184 27.3556 22.4911 34.4076 22.4911 38.0813C22.4911 46.3798 24.0494 52.2838 26.4517 52.2838C27.7178 52.2838 29.1138 51.759 30.25 50.611L31.2889 66.8472C29.6332 68.7496 27.588 69.7336 24.9908 69.7336C18.4006 69.7336 15.349 52.6446 15.349 37.5893C15.349 22.5339 19.407 10.2666 25.8349 10.2666Z" fill="#F8F3EB"/>
<path d="M35.2495 10.9226H44.0148C50.0532 10.9226 52.0984 22.8619 52.0984 30.406C52.0984 35.8837 50.2479 39.7869 48.5923 41.0661L52.8126 68.028C51.9685 68.7824 49.9882 69.7008 48.365 69.7008C46.0276 69.7008 45.2809 68.2904 44.6641 65.0432L42.6513 46.839C42.6513 46.839 42.4241 46.839 42.2618 46.839C42.1319 46.839 42.0994 46.839 41.9371 46.7734V69.1104H35.2495V10.9226ZM44.4693 36.5725C44.9887 35.6213 45.3783 33.7516 45.3783 31.5868C45.3783 28.0772 44.8589 23.1243 42.9435 23.1243C42.7487 23.1243 42.067 23.1243 41.9047 23.1899V36.8677C41.9047 36.8677 42.4241 36.9989 42.8461 36.9989C43.2681 36.9989 43.9499 36.9333 44.4369 36.5397L44.4693 36.5725Z" fill="#F8F3EB"/>
<path d="M54.9228 23.9771C54.7605 22.3043 54.728 20.7955 54.728 19.4507C54.728 15.7442 55.3124 10.8898 57.9744 10.8898H67.9409C68.0059 12.7922 68.0708 18.1058 68.0708 19.3851C68.0708 22.3043 67.7137 23.7147 66.2528 23.9115C65.7658 23.9115 65.6035 23.8459 64.8568 23.8459V52.8086L67.9085 52.6774C68.0383 54.4486 68.0708 55.9246 68.0708 57.1382C68.0708 60.9759 67.6812 69.0776 64.8568 69.0776H55.0202C54.8254 67.4047 54.728 58.4831 54.728 57.2038C54.728 54.0878 55.4098 53.0054 57.0654 52.743C57.3901 52.6774 57.8446 52.6774 58.0069 52.6774V23.8459L54.9228 23.9771Z" fill="#F8F3EB"/>
<path d="M80.5695 10.2666C83.1991 10.2666 85.3742 10.8898 87.0298 12.005C86.8026 19.0243 85.7962 24.6987 84.4976 24.6987C82.9394 24.6987 82.2251 23.6819 80.1799 23.6819C79.5955 23.6819 79.0761 23.8131 78.6866 24.0755C78.4918 24.6003 78.3944 28.7004 78.3944 29.3236C78.3944 30.2748 78.5567 31.6196 81.3161 33.2924C86.3481 36.0477 87.4519 43.9197 87.4519 49.0694C87.4519 57.4335 83.8484 69.7664 78.7515 69.7664C74.9856 69.7664 72.843 68.4216 71.6418 67.1424C71.6094 61.0743 72.843 51.6934 74.0117 51.6934C75.6025 51.6934 76.5439 53.3006 78.719 53.3006C79.206 53.3006 79.7579 53.235 80.1799 52.907C80.3422 52.7102 80.537 51.6278 80.537 50.939C80.537 49.5942 80.3747 48.0526 77.4529 46.2814C73.4598 43.7885 71.6094 37.1957 71.6094 30.8324C71.6094 23.5507 74.4013 10.3322 80.5045 10.3322L80.5695 10.2666Z" fill="#F8F3EB"/>
<path d="M100.827 10.9226C106.703 10.9226 108.943 22.5667 108.943 32.3084C108.943 41.0333 105.859 50.775 99.9506 50.775C99.4636 50.775 99.0416 50.775 98.7494 50.7094V69.1104H92.0618V10.9226H100.827ZM101.671 37.7861C102.028 36.5069 102.191 34.4732 102.191 31.9804C102.191 28.3396 101.704 23.1571 100.08 23.1571C99.5935 23.1571 99.1389 23.2227 98.7818 23.3539V38.3765C98.7818 38.3765 99.5285 38.5733 99.983 38.5733C100.47 38.5733 101.217 38.4421 101.704 37.8189L101.671 37.7861Z" fill="#F8F3EB"/>
<path d="M108.943 11.5458C110.144 10.9554 112.092 10.3978 113.715 10.3978C116.54 10.3978 116.897 16.0067 117.254 20.4019L118.715 36.3101H118.747L121.182 10.8898H127.642L121.864 48.9054V69.0776H115.079V49.2662L108.976 11.513L108.943 11.5458Z" fill="#F8F3EB"/>
<path d="M191.597 10.2666C194.616 10.2666 196.564 11.6114 196.986 12.0378C196.986 18.8603 195.914 24.9939 194.811 24.9939C193.707 24.9939 193.252 24.2395 191.175 24.2395C190.525 24.2395 189.681 24.5675 189.162 24.9283C188.48 27.3556 188.253 34.4076 188.253 38.0813C188.253 46.3798 189.811 52.2838 192.214 52.2838C193.48 52.2838 194.876 51.759 196.012 50.611L197.051 66.8472C195.395 68.7496 193.35 69.7336 190.753 69.7336C184.162 69.7336 181.111 52.6446 181.111 37.5893C181.111 22.5339 185.201 10.2666 191.629 10.2666H191.597Z" fill="#F8F3EB"/>
<path d="M200.167 10.9226H208.933C214.971 10.9226 217.016 22.8619 217.016 30.406C217.016 35.8837 215.166 39.7869 213.51 41.0661L217.73 68.028C216.886 68.7824 214.906 69.7008 213.283 69.7008C210.945 69.7008 210.199 68.2904 209.582 65.0432L207.569 46.839C207.569 46.839 207.342 46.839 207.18 46.839C207.05 46.839 207.017 46.839 206.855 46.7734V69.1104H200.167V10.9226ZM209.42 36.5725C209.939 35.6213 210.329 33.7516 210.329 31.5868C210.329 28.0772 209.809 23.1243 207.894 23.1243C207.699 23.1243 207.017 23.1243 206.855 23.1899V36.8677C206.855 36.8677 207.374 36.9989 207.796 36.9989C208.218 36.9989 208.9 36.9333 209.387 36.5397L209.42 36.5725Z" fill="#F8F3EB"/>
<path d="M218.347 11.349C219.386 10.8898 220.717 10.6602 222.081 10.6602C224.71 10.6602 225.23 15.5146 225.23 21.2547V49.1349C225.23 51.9558 225.781 52.7102 227.015 52.7102C227.697 52.7102 228.379 52.3822 228.833 51.9558V10.9226H235.586V65.9287C233.67 67.6999 230.619 69.7663 226.398 69.7663C220.425 69.7663 218.38 58.7126 218.38 49.2661V11.349H218.347Z" fill="#F8F3EB"/>
<path d="M238.118 10.9226H246.948L249.773 39.5901H250.162L252.694 10.9226H261.882V68.356C261.102 68.8808 259.771 69.4384 258.538 69.4384C256.46 69.4384 255.486 61.2383 255.551 56.5807L255.843 33.9812H255.421L253.051 65.1744C251.85 65.8632 250.974 66.06 249.545 66.06C247.403 66.06 246.656 57.4991 246.201 53.1038L244.221 33.9484H243.799L244.156 69.1432H238.085V10.9226H238.118Z" fill="#F8F3EB"/>
<path d="M265.323 68.4544V10.9226H272.822C278.373 10.9226 281.555 17.4827 281.555 24.8299C281.555 28.2084 280.419 35.2605 278.86 37.0317C281.003 38.5077 282.399 44.9694 282.399 48.971C282.399 57.2039 278.893 69.7336 272.4 69.7336C269.705 69.7336 267.336 69.1432 265.355 68.4544H265.323ZM271.945 22.9603V34.4076H274.25C274.932 33.3252 275.289 31.718 275.289 29.8156C275.289 27.782 274.64 22.8947 273.017 22.8947L271.945 22.9603ZM271.945 41.4925V53.9566C272.367 54.219 272.822 54.2846 273.212 54.2846C273.796 54.2846 274.413 54.0878 274.835 53.6614C275.192 52.7758 275.549 51.2342 275.549 49.3974C275.549 47.2326 275.159 42.2141 274.348 41.5253H271.913L271.945 41.4925Z" fill="#F8F3EB"/>
<path d="M292.43 10.2666C295.06 10.2666 297.235 10.8898 298.891 12.005C298.663 19.0243 297.657 24.6987 296.358 24.6987C294.8 24.6987 294.086 23.6819 292.041 23.6819C291.456 23.6819 290.937 23.8131 290.547 24.0755C290.353 24.6003 290.255 28.7004 290.255 29.3236C290.255 30.2748 290.418 31.6196 293.177 33.2924C298.209 36.0477 299.313 43.9197 299.313 49.0694C299.313 57.4335 295.709 69.7664 290.612 69.7664C286.846 69.7664 284.704 68.4216 283.503 67.1424C283.47 61.0743 284.704 51.6934 285.873 51.6934C287.463 51.6934 288.405 53.3006 290.58 53.3006C291.067 53.3006 291.619 53.235 292.041 52.907C292.203 52.7102 292.398 51.6278 292.398 50.939C292.398 49.5942 292.236 48.0526 289.314 46.2814C285.321 43.7885 283.47 37.1957 283.47 30.8324C283.47 23.5507 286.262 10.3322 292.365 10.3322L292.43 10.2666Z" fill="#F8F3EB"/>
<path d="M169.294 38.3108C155.886 30.5043 155.432 31.2915 142.056 23.485C139.751 22.1402 137.122 23.1898 137.122 25.8795C137.122 41.4924 137.998 41.4924 137.998 57.1382C137.998 59.8278 140.433 62.091 142.771 60.7134C156.178 52.9069 155.789 52.2509 169.196 44.4444C171.501 43.0996 171.631 39.6884 169.326 38.3108H169.294Z" fill="#F8F3EB"/>
</svg>
