<svg width="359" height="315" viewBox="0 0 359 315" fill="none" xmlns="http://www.w3.org/2000/svg">
<path d="M494.252 -4.33701C494.252 19.8919 498.719 43.4424 493.572 66.1207C488.425 88.7989 472.597 108.182 462.4 129.31C452.204 150.437 448.222 175.538 433.461 193.952C418.701 212.366 398.987 226.225 380.342 241.053C361.697 255.881 339.459 262.375 317.901 272.648C296.343 282.921 277.115 293.679 253.614 299.009C230.114 304.339 208.458 314.903 184.181 314.903C159.903 314.903 137.665 303.37 114.942 298.234C92.2181 293.097 69.2031 287.961 48.0332 277.688C26.8633 267.414 -2.9494 267.511 -21.4002 252.78C-39.8511 238.049 -58.5932 219.054 -73.451 200.543C-88.3088 182.032 -101.807 159.45 -112.198 137.935C-122.588 116.42 -112.198 87.6359 -117.539 64.1823C-122.88 40.7288 -134.921 19.6981 -134.921 -4.53085C-134.921 -28.7598 -142.302 -55.0239 -137.155 -77.7021C-132.008 -100.38 -112.198 -120.927 -102.001 -142.054C-91.8047 -163.182 -76.6556 -181.983 -61.895 -200.397C-47.1343 -218.811 -34.4129 -240.133 -15.865 -254.961C2.68297 -269.789 24.2413 -281.225 45.7997 -291.498C67.358 -301.771 87.5568 -319.216 111.057 -324.546C134.558 -329.877 160.001 -319.894 184.278 -319.894C208.555 -319.894 230.211 -309.815 252.935 -304.679C275.658 -299.542 295.566 -289.075 316.736 -278.899C337.905 -268.723 368.204 -272.309 386.655 -257.578C405.105 -242.846 420.157 -222.397 434.918 -203.789C449.679 -185.182 466.382 -166.38 476.772 -144.865C487.163 -123.349 479.006 -96.1161 484.347 -72.6625C489.688 -49.209 494.349 -28.5659 494.349 -4.33701H494.252Z" fill="#E09231"/>
</svg>
